<?xml version="1.0" encoding="utf-8"?>
<!-- Generator: Adobe Illustrator 25.0.1, SVG Export Plug-In . SVG Version: 6.00 Build 0)  -->
<svg version="1.1" id="Layer_1" xmlns="http://www.w3.org/2000/svg" xmlns:xlink="http://www.w3.org/1999/xlink" x="0px" y="0px"
	 viewBox="0 0 512 512" style="enable-background:new 0 0 512 512;" xml:space="preserve">
<path d="M30.23,125.27h452.24c9.61,0,17.39-7.79,17.39-17.39V64.39c0-9.61-7.79-17.39-17.39-17.39H30.23
	c-9.61,0-17.39,7.79-17.39,17.39v43.49C12.84,117.49,20.62,125.27,30.23,125.27z M30.23,299.21h452.24
	c9.61,0,17.39-7.79,17.39-17.39v-43.49c0-9.61-7.79-17.39-17.39-17.39H30.23c-9.61,0-17.39,7.79-17.39,17.39v43.49
	C12.84,291.43,20.62,299.21,30.23,299.21z M30.23,473.15h452.24c9.61,0,17.39-7.79,17.39-17.39v-43.49
	c0-9.61-7.79-17.39-17.39-17.39H30.23c-9.61,0-17.39,7.79-17.39,17.39v43.49C12.84,465.37,20.62,473.15,30.23,473.15z"/>
</svg>
