<?xml version="1.0" encoding="utf-8"?>
<!-- Generator: Adobe Illustrator 25.0.1, SVG Export Plug-In . SVG Version: 6.00 Build 0)  -->
<svg version="1.1" id="Layer_1" xmlns="http://www.w3.org/2000/svg" xmlns:xlink="http://www.w3.org/1999/xlink" x="0px" y="0px"
	 viewBox="0 0 512 512" style="enable-background:new 0 0 512 512;" xml:space="preserve">
<path d="M334.1,249.22l112.54-112.54c13.81-13.81,13.81-36.2,0-50.02l-25.01-25.01c-13.81-13.81-36.2-13.81-50.02,0L259.06,174.18
	L146.52,61.64c-13.81-13.81-36.2-13.81-50.02,0L71.48,86.65c-13.81,13.81-13.81,36.2,0,50.02l112.54,112.54L71.48,361.76
	c-13.81,13.81-13.81,36.2,0,50.02L96.5,436.8c13.81,13.81,36.21,13.81,50.02,0l112.54-112.54L371.61,436.8
	c13.81,13.81,36.21,13.81,50.02,0l25.01-25.01c13.81-13.81,13.81-36.2,0-50.02L334.1,249.22z"/>
</svg>
